<?xml version="1.0" standalone="no"?>
<!DOCTYPE svg PUBLIC "-//W3C//DTD SVG 20010904//EN"
 "http://www.w3.org/TR/2001/REC-SVG-20010904/DTD/svg10.dtd">
<svg version="1.0" xmlns="http://www.w3.org/2000/svg"
 width="240.000000pt" height="240.000000pt" viewBox="0 0 240.000000 240.000000"
 preserveAspectRatio="xMidYMid meet">
<metadata>
Created by potrace 1.11, written by Peter Selinger 2001-2013
</metadata>
<g transform="translate(0.000000,240.000000) scale(0.100000,-0.100000)"
fill="#000000" stroke="none">
<path d="M0 1200 l0 -1100 1200 0 1200 0 0 100 0 100 -1100 0 -1100 0 0 1000
0 1000 -100 0 -100 0 0 -1100z"/>
<path d="M2389 2096 c-4 -4 -557 -118 -576 -119 -7 0 -12 -2 -10 -3 1 -2 39
-41 85 -87 l83 -84 -266 -268 -266 -268 -60 59 c-33 32 -99 98 -147 147 -47
48 -90 87 -95 87 -5 0 -136 -126 -290 -279 -155 -154 -317 -314 -359 -355 -43
-42 -78 -79 -78 -84 0 -4 30 -38 68 -74 l67 -67 266 262 c147 144 280 275 297
290 l29 28 146 -145 c80 -80 148 -146 152 -146 4 0 159 151 344 335 l336 335
83 -83 c45 -47 82 -84 82 -83 0 1 27 136 60 301 55 274 61 313 49 301z"/>
<path d="M473 1843 c-35 -36 -63 -68 -63 -71 0 -4 72 -79 160 -167 l160 -160
72 72 72 72 -164 161 c-91 88 -167 159 -170 159 -3 -1 -33 -30 -67 -66z"/>
<path d="M1827 1092 l-68 -68 107 -106 106 -105 -86 -86 c-77 -78 -83 -87 -63
-92 35 -8 508 -103 546 -110 31 -5 33 -4 28 17 -5 19 -42 202 -61 298 -2 14
-10 50 -16 80 -12 57 -18 91 -24 125 -15 79 -10 79 -96 -6 -44 -44 -83 -79
-87 -79 -5 0 -53 45 -108 100 -55 55 -102 100 -105 100 -3 0 -36 -31 -73 -68z"/>
</g>
</svg>
